# xmcd CD database file
#
# Track frame offsets:
#	150
#	12616
#	32382
#	46728
#	59536
#	77059
#	93583
#	114932
#	139395
#	158586
#	175462
#	187808
#
# Disc length: 2672 seconds
#
# Revision: 2
# Processed by: cddbd v1.5.1PL2 Copyright (c) Steve Scherf et al.
# Submitted via: CDex 1.50
#
DISCID=940a6e0c
DTITLE=Variados - Country Collection - Volume 9
DYEAR=1997
DGENRE=Country
TTITLE0=Bob Woodruff - Almost Saturday Night
TTITLE1=Bellamy Brothers - We Dared The Lighting
TTITLE2=Steve Haggard - Life Is A Mistery
TTITLE3=Don Cox - I Never Met A Woman That I Didin't Like
TTITLE4=Paulette Carlson - Hearts On The Run
TTITLE5=Mag Line - Baby I Lied
TTITLE6=Christopher King - Maggie May
TTITLE7=Donald Wood - American Pie
TTITLE8=Nick Brack - Lost In Love
TTITLE9=Lyvia Gell - One Way Ticket
TTITLE10=Andrew Mack - If Didn't Love You
TTITLE11=Rich McCready - Mos Likely To Succed
EXTD=YEAR: 1997
EXTT0=
EXTT1=
EXTT2=
EXTT3=
EXTT4=
EXTT5=
EXTT6=
EXTT7=
EXTT8=
EXTT9=
EXTT10=
EXTT11=
PLAYORDER=
